<mxfile host="Electron" agent="Mozilla/5.0 (X11; Linux x86_64) AppleWebKit/537.36 (KHTML, like Gecko) draw.io/24.7.5 Chrome/126.0.6478.183 Electron/31.3.0 Safari/537.36" version="24.7.5">
  <diagram name="Page-1" id="JXHdF40nukU7jscAbEXL">
    <mxGraphModel dx="1434" dy="1922" grid="1" gridSize="10" guides="1" tooltips="1" connect="1" arrows="1" fold="1" page="1" pageScale="1" pageWidth="850" pageHeight="1100" math="0" shadow="0">
      <root>
        <mxCell id="0" />
        <mxCell id="1" parent="0" />
        <mxCell id="oXOyr_QHsVJ2hII0ZMJm-3" value="" style="ellipse;whiteSpace=wrap;html=1;fillColor=none;dashed=1;" parent="1" vertex="1">
          <mxGeometry x="60" y="120" width="240" height="220" as="geometry" />
        </mxCell>
        <mxCell id="oXOyr_QHsVJ2hII0ZMJm-21" style="edgeStyle=orthogonalEdgeStyle;rounded=0;orthogonalLoop=1;jettySize=auto;html=1;startArrow=classic;startFill=1;endArrow=none;endFill=0;" parent="1" source="oXOyr_QHsVJ2hII0ZMJm-1" target="oXOyr_QHsVJ2hII0ZMJm-2" edge="1">
          <mxGeometry relative="1" as="geometry" />
        </mxCell>
        <mxCell id="oXOyr_QHsVJ2hII0ZMJm-1" value="Back API &amp;amp;&lt;div&gt;Storage&lt;/div&gt;" style="shape=cylinder3;whiteSpace=wrap;html=1;boundedLbl=1;backgroundOutline=1;size=15;" parent="1" vertex="1">
          <mxGeometry x="150" y="250" width="60" height="80" as="geometry" />
        </mxCell>
        <mxCell id="oXOyr_QHsVJ2hII0ZMJm-2" value="&amp;nbsp;Front" style="rounded=0;whiteSpace=wrap;html=1;align=left;" parent="1" vertex="1">
          <mxGeometry x="115" y="150" width="130" height="80" as="geometry" />
        </mxCell>
        <mxCell id="oXOyr_QHsVJ2hII0ZMJm-8" value="" style="shape=umlActor;verticalLabelPosition=bottom;verticalAlign=top;html=1;outlineConnect=0;fillColor=#d5e8d4;strokeColor=#82b366;" parent="1" vertex="1">
          <mxGeometry x="165" y="-20" width="30" height="60" as="geometry" />
        </mxCell>
        <mxCell id="oXOyr_QHsVJ2hII0ZMJm-10" style="edgeStyle=orthogonalEdgeStyle;rounded=0;orthogonalLoop=1;jettySize=auto;html=1;" parent="1" source="oXOyr_QHsVJ2hII0ZMJm-8" edge="1">
          <mxGeometry relative="1" as="geometry">
            <mxPoint x="180" y="150" as="targetPoint" />
          </mxGeometry>
        </mxCell>
        <mxCell id="oXOyr_QHsVJ2hII0ZMJm-11" value="1) Connects" style="text;html=1;align=center;verticalAlign=middle;resizable=0;points=[];autosize=1;strokeColor=none;fillColor=none;" parent="1" vertex="1">
          <mxGeometry x="170" y="60" width="90" height="30" as="geometry" />
        </mxCell>
        <mxCell id="oXOyr_QHsVJ2hII0ZMJm-12" value="App 1" style="text;html=1;align=center;verticalAlign=middle;resizable=0;points=[];autosize=1;strokeColor=none;fillColor=none;" parent="1" vertex="1">
          <mxGeometry x="50" y="120" width="50" height="30" as="geometry" />
        </mxCell>
        <mxCell id="oXOyr_QHsVJ2hII0ZMJm-13" value="Nostr&amp;nbsp;&lt;div&gt;Client&lt;/div&gt;" style="rhombus;whiteSpace=wrap;html=1;fillColor=#d5e8d4;strokeColor=#82b366;" parent="1" vertex="1">
          <mxGeometry x="170" y="165" width="60" height="55" as="geometry" />
        </mxCell>
        <mxCell id="oXOyr_QHsVJ2hII0ZMJm-16" value="Nostr&lt;div&gt;Relay DB&lt;/div&gt;" style="shape=cylinder3;whiteSpace=wrap;html=1;boundedLbl=1;backgroundOutline=1;size=15;" parent="1" vertex="1">
          <mxGeometry x="150" y="540" width="60" height="80" as="geometry" />
        </mxCell>
        <mxCell id="oXOyr_QHsVJ2hII0ZMJm-53" style="edgeStyle=orthogonalEdgeStyle;rounded=0;orthogonalLoop=1;jettySize=auto;html=1;" parent="1" source="oXOyr_QHsVJ2hII0ZMJm-23" target="oXOyr_QHsVJ2hII0ZMJm-50" edge="1">
          <mxGeometry relative="1" as="geometry">
            <Array as="points">
              <mxPoint x="178" y="370" />
              <mxPoint x="583" y="370" />
            </Array>
          </mxGeometry>
        </mxCell>
        <mxCell id="oXOyr_QHsVJ2hII0ZMJm-23" value="Nostr&amp;nbsp;&lt;div&gt;R&lt;span style=&quot;background-color: initial;&quot;&gt;elay&lt;/span&gt;&lt;/div&gt;" style="ellipse;shape=cloud;whiteSpace=wrap;html=1;fillColor=#ffe6cc;strokeColor=#d79b00;" parent="1" vertex="1">
          <mxGeometry x="125" y="410" width="105" height="70" as="geometry" />
        </mxCell>
        <mxCell id="oXOyr_QHsVJ2hII0ZMJm-25" value="" style="endArrow=classic;html=1;rounded=0;exitX=0.55;exitY=0.95;exitDx=0;exitDy=0;exitPerimeter=0;entryX=0.5;entryY=0;entryDx=0;entryDy=0;entryPerimeter=0;dashed=1;dashPattern=1 2;" parent="1" source="oXOyr_QHsVJ2hII0ZMJm-23" target="oXOyr_QHsVJ2hII0ZMJm-16" edge="1">
          <mxGeometry relative="1" as="geometry">
            <mxPoint x="370" y="360" as="sourcePoint" />
            <mxPoint x="470" y="360" as="targetPoint" />
            <Array as="points">
              <mxPoint x="183" y="510" />
            </Array>
          </mxGeometry>
        </mxCell>
        <mxCell id="oXOyr_QHsVJ2hII0ZMJm-33" value="No hard requirement&lt;div&gt;on persistence duration&lt;/div&gt;" style="text;html=1;align=center;verticalAlign=middle;resizable=0;points=[];autosize=1;strokeColor=none;fillColor=none;" parent="1" vertex="1">
          <mxGeometry x="170" y="480" width="150" height="40" as="geometry" />
        </mxCell>
        <mxCell id="oXOyr_QHsVJ2hII0ZMJm-37" style="edgeStyle=orthogonalEdgeStyle;rounded=0;orthogonalLoop=1;jettySize=auto;html=1;entryX=0.96;entryY=0.7;entryDx=0;entryDy=0;entryPerimeter=0;" parent="1" source="oXOyr_QHsVJ2hII0ZMJm-13" target="oXOyr_QHsVJ2hII0ZMJm-23" edge="1">
          <mxGeometry relative="1" as="geometry">
            <Array as="points">
              <mxPoint x="250" y="193" />
              <mxPoint x="250" y="459" />
            </Array>
          </mxGeometry>
        </mxCell>
        <mxCell id="oXOyr_QHsVJ2hII0ZMJm-38" value="2) Sends" style="text;html=1;align=center;verticalAlign=middle;whiteSpace=wrap;rounded=0;" parent="1" vertex="1">
          <mxGeometry x="260" y="230" width="20" height="30" as="geometry" />
        </mxCell>
        <mxCell id="oXOyr_QHsVJ2hII0ZMJm-39" value="Nostr&amp;nbsp;&lt;div&gt;R&lt;span style=&quot;background-color: initial;&quot;&gt;elay&lt;/span&gt;&lt;/div&gt;" style="ellipse;shape=cloud;whiteSpace=wrap;html=1;fillColor=#ffe6cc;strokeColor=#d79b00;" parent="1" vertex="1">
          <mxGeometry x="320" y="410" width="105" height="70" as="geometry" />
        </mxCell>
        <mxCell id="oXOyr_QHsVJ2hII0ZMJm-40" value="Nostr&amp;nbsp;&lt;div&gt;R&lt;span style=&quot;background-color: initial;&quot;&gt;elay&lt;/span&gt;&lt;/div&gt;" style="ellipse;shape=cloud;whiteSpace=wrap;html=1;fillColor=#ffe6cc;strokeColor=#d79b00;" parent="1" vertex="1">
          <mxGeometry x="475" y="405" width="105" height="70" as="geometry" />
        </mxCell>
        <mxCell id="oXOyr_QHsVJ2hII0ZMJm-41" style="edgeStyle=orthogonalEdgeStyle;rounded=0;orthogonalLoop=1;jettySize=auto;html=1;entryX=0.505;entryY=0.071;entryDx=0;entryDy=0;entryPerimeter=0;" parent="1" source="oXOyr_QHsVJ2hII0ZMJm-13" target="oXOyr_QHsVJ2hII0ZMJm-39" edge="1">
          <mxGeometry relative="1" as="geometry" />
        </mxCell>
        <mxCell id="oXOyr_QHsVJ2hII0ZMJm-42" value="" style="ellipse;whiteSpace=wrap;html=1;fillColor=none;dashed=1;" parent="1" vertex="1">
          <mxGeometry x="427.5" y="110" width="240" height="220" as="geometry" />
        </mxCell>
        <mxCell id="oXOyr_QHsVJ2hII0ZMJm-44" value="Back API &amp;amp;&lt;div&gt;Storage&lt;/div&gt;" style="shape=cylinder3;whiteSpace=wrap;html=1;boundedLbl=1;backgroundOutline=1;size=15;align=left;" parent="1" vertex="1">
          <mxGeometry x="495" y="205" width="120" height="110" as="geometry" />
        </mxCell>
        <mxCell id="oXOyr_QHsVJ2hII0ZMJm-52" style="edgeStyle=orthogonalEdgeStyle;rounded=0;orthogonalLoop=1;jettySize=auto;html=1;" parent="1" source="oXOyr_QHsVJ2hII0ZMJm-45" target="oXOyr_QHsVJ2hII0ZMJm-44" edge="1">
          <mxGeometry relative="1" as="geometry" />
        </mxCell>
        <mxCell id="oXOyr_QHsVJ2hII0ZMJm-45" value="&amp;nbsp;Front" style="rounded=0;whiteSpace=wrap;html=1;align=left;" parent="1" vertex="1">
          <mxGeometry x="530" y="140" width="50" height="40" as="geometry" />
        </mxCell>
        <mxCell id="oXOyr_QHsVJ2hII0ZMJm-46" value="" style="shape=umlActor;verticalLabelPosition=bottom;verticalAlign=top;html=1;outlineConnect=0;fillColor=#dae8fc;strokeColor=#6c8ebf;" parent="1" vertex="1">
          <mxGeometry x="532.5" y="-30" width="30" height="60" as="geometry" />
        </mxCell>
        <mxCell id="oXOyr_QHsVJ2hII0ZMJm-47" style="edgeStyle=orthogonalEdgeStyle;rounded=0;orthogonalLoop=1;jettySize=auto;html=1;" parent="1" source="oXOyr_QHsVJ2hII0ZMJm-46" edge="1">
          <mxGeometry relative="1" as="geometry">
            <mxPoint x="547.5" y="140" as="targetPoint" />
          </mxGeometry>
        </mxCell>
        <mxCell id="oXOyr_QHsVJ2hII0ZMJm-48" value="1) Connects" style="text;html=1;align=center;verticalAlign=middle;resizable=0;points=[];autosize=1;strokeColor=none;fillColor=none;" parent="1" vertex="1">
          <mxGeometry x="537.5" y="50" width="90" height="30" as="geometry" />
        </mxCell>
        <mxCell id="oXOyr_QHsVJ2hII0ZMJm-49" value="App 2" style="text;html=1;align=center;verticalAlign=middle;resizable=0;points=[];autosize=1;strokeColor=none;fillColor=none;" parent="1" vertex="1">
          <mxGeometry x="415" y="120" width="50" height="30" as="geometry" />
        </mxCell>
        <mxCell id="oXOyr_QHsVJ2hII0ZMJm-50" value="Nostr&amp;nbsp;&lt;div&gt;Client&lt;/div&gt;" style="rhombus;whiteSpace=wrap;html=1;fillColor=#dae8fc;strokeColor=#6c8ebf;direction=south;" parent="1" vertex="1">
          <mxGeometry x="555" y="247.5" width="55" height="60" as="geometry" />
        </mxCell>
        <mxCell id="oXOyr_QHsVJ2hII0ZMJm-55" value="3) Deci&lt;span style=&quot;background-color: initial;&quot;&gt;des to&lt;/span&gt;&lt;div&gt;broadcast&lt;br&gt;to connected Clients&lt;/div&gt;" style="text;html=1;align=center;verticalAlign=middle;resizable=0;points=[];autosize=1;strokeColor=none;fillColor=none;" parent="1" vertex="1">
          <mxGeometry x="60" y="350" width="130" height="60" as="geometry" />
        </mxCell>
        <mxCell id="oXOyr_QHsVJ2hII0ZMJm-59" value="" style="endArrow=classic;html=1;rounded=0;exitX=0.55;exitY=0.95;exitDx=0;exitDy=0;exitPerimeter=0;entryX=1;entryY=0.5;entryDx=0;entryDy=0;dashed=1;" parent="1" source="oXOyr_QHsVJ2hII0ZMJm-39" target="oXOyr_QHsVJ2hII0ZMJm-50" edge="1">
          <mxGeometry relative="1" as="geometry">
            <mxPoint x="532.5" y="530" as="sourcePoint" />
            <mxPoint x="709.5" y="603" as="targetPoint" />
            <Array as="points">
              <mxPoint x="590" y="500" />
            </Array>
          </mxGeometry>
        </mxCell>
        <mxCell id="oXOyr_QHsVJ2hII0ZMJm-60" value="" style="shape=cross;html=1;outlineConnect=0;fillStyle=auto;flipV=1;flipH=1;rotation=45;" parent="oXOyr_QHsVJ2hII0ZMJm-59" vertex="1">
          <mxGeometry width="20" height="14" relative="1" as="geometry">
            <mxPoint x="-10" y="-7" as="offset" />
          </mxGeometry>
        </mxCell>
        <mxCell id="oXOyr_QHsVJ2hII0ZMJm-61" value="3) This Relays decides&lt;br&gt;NOT to broadcast the data." style="text;html=1;align=center;verticalAlign=middle;resizable=0;points=[];autosize=1;strokeColor=none;fillColor=none;" parent="1" vertex="1">
          <mxGeometry x="385" y="490" width="170" height="40" as="geometry" />
        </mxCell>
        <mxCell id="xJf6He4Ev0Zyu2FtWIjX-1" value="Nostr&lt;div&gt;Relay DB&lt;/div&gt;" style="shape=cylinder3;whiteSpace=wrap;html=1;boundedLbl=1;backgroundOutline=1;size=15;" vertex="1" parent="1">
          <mxGeometry x="325" y="530" width="60" height="80" as="geometry" />
        </mxCell>
        <mxCell id="xJf6He4Ev0Zyu2FtWIjX-2" value="Nostr&lt;div&gt;Relay DB&lt;/div&gt;" style="shape=cylinder3;whiteSpace=wrap;html=1;boundedLbl=1;backgroundOutline=1;size=15;" vertex="1" parent="1">
          <mxGeometry x="615" y="400" width="60" height="80" as="geometry" />
        </mxCell>
        <mxCell id="xJf6He4Ev0Zyu2FtWIjX-3" style="edgeStyle=orthogonalEdgeStyle;rounded=0;orthogonalLoop=1;jettySize=auto;html=1;entryX=0.5;entryY=0;entryDx=0;entryDy=0;entryPerimeter=0;dashed=1;dashPattern=1 2;" edge="1" parent="1" source="oXOyr_QHsVJ2hII0ZMJm-39" target="xJf6He4Ev0Zyu2FtWIjX-1">
          <mxGeometry relative="1" as="geometry" />
        </mxCell>
        <mxCell id="xJf6He4Ev0Zyu2FtWIjX-13" style="edgeStyle=orthogonalEdgeStyle;rounded=0;orthogonalLoop=1;jettySize=auto;html=1;entryX=0;entryY=0.5;entryDx=0;entryDy=0;entryPerimeter=0;dashed=1;dashPattern=1 2;" edge="1" parent="1" source="oXOyr_QHsVJ2hII0ZMJm-40" target="xJf6He4Ev0Zyu2FtWIjX-2">
          <mxGeometry relative="1" as="geometry" />
        </mxCell>
      </root>
    </mxGraphModel>
  </diagram>
</mxfile>
